<svg id="Layer_1" enable-background="new 0 0 110 110" height="512" viewBox="0 0 110 110" width="512" xmlns="http://www.w3.org/2000/svg" xmlns:x="http://ns.adobe.com/Extensibility/1.0/" xmlns:i="http://ns.adobe.com/AdobeIllustrator/10.0/" xmlns:graph="http://ns.adobe.com/Graphs/1.0/">
<path d="m47.275 76.473h1.75v13.201h-1.75z" fill="#E4F2F9"/><path d="m60.276 76.473h1.75v13.201h-1.75z" fill="#E4F2F9"/>
<path d="m47.1499023 78.283165h15.6962891c10.2109375-15.8818359 23.34375-14.90625 23.34375-38.402832 0-17.2299805-13.9699707-31.1899405-31.1899414-31.1899405-17.2299805 0-31.1899414 13.95996-31.1899414 31.1899414 0 23.4965811 13.1269531 22.5209951 23.3398437 38.4028311z" fill="#FC8621"/>
<path d="m60.0834961 78.283165c6.6157227-15.8818359 15.1247559-14.90625 15.1247559-38.402832 0-17.2299805-9.0512695-31.1899414-20.208252-31.1899414-11.1633301 0-20.208252 13.95996-20.208252 31.1899414 0 23.496582 8.505127 22.5209961 15.1220703 38.402832z" fill="#fff"/>
<path d="m57.2578125 78.283165c2.9382324-15.8818359 6.7172852-14.90625 6.7172852-38.402832 0-17.2299805-4.0200195-31.1899414-8.9750977-31.1899414-4.9580078 0-8.9748535 13.95996-8.9748535 31.1899414 0 23.496582 3.7770996 22.5209961 6.7158203 38.402832z" fill="#FC8621"/>
<path d="m45.3278198 87.6956863v9.1654205c0 2.4565277 1.9917564 4.4485016 4.4484978 4.4485016h10.4477997c2.4565239 0 4.4480629-1.9919739 4.4480629-4.4485016v-9.1654205z" fill="#b78b7a"/>
<path d="m65.3469238 86.5081863h-20.6938476c-.7458496 0-1.355957.6098633-1.355957 1.355957 0 .7456055.6101074 1.3554688 1.355957 1.3554688h20.6938477c.7458496 0 1.355957-.6098633 1.355957-1.3554688 0-.7460937-.6101075-1.355957-1.3559571-1.355957z" fill="#aa7a63"/></svg>